<?xml version="1.0" encoding="utf-8"?>
<!-- Generator: Adobe Illustrator 19.0.0, SVG Export Plug-In . SVG Version: 6.00 Build 0)  -->
<svg version="1.1" id="Layer_1" xmlns="http://www.w3.org/2000/svg" xmlns:xlink="http://www.w3.org/1999/xlink" x="0px" y="0px"
	 viewBox="0 0 779 219" style="enable-background:new 0 0 779 219;" xml:space="preserve">
<g id="a58dbT.tif">
	<g id="XMLID_1_">
		<path id="XMLID_64_" d="M314,0c3.9,0.7,7.9,1.4,11.8,2c17.3,2.3,33.5,7.4,46.3,19.9c8.1,7.9,12.8,18.1,14.8,29.3
			c0.8,4.3,1.3,8.7,2,13.1c0.4,2.8-0.9,3.9-3.7,3.9c-18.2-0.1-36.3,0-54.7,0c-1.9-8.8-5.2-16.7-13.4-21.3c-9.1-5.1-19.2-6.7-29.4-5
			c-6.5,1.1-13.1,2.6-19,5.5c-11.5,5.6-18.3,15.6-22.8,27.3c-4.4,11.6-6.3,23.8-5.9,36.2c0.5,16.2,3.5,31.8,13.8,45.2
			c8,10.4,18.7,16.3,31.2,19c10.8,2.3,21.7,2.1,32.6,0.3c3.2-0.6,6.6-0.5,9.8-1.3c1.3-0.3,3.3-2,3.3-3.1c0.2-11.4,0.1-22.9,0.1-34.8
			c-12.4,0-24.4-0.2-36.4,0.1c-4.3,0.1-5.9-1.1-5.7-5.6c0.3-10.5,0.2-21,0-31.5c-0.1-3.5,0.7-5.1,4.7-5.1c30.7,0.1,61.3,0.1,92,0
			c2.7,0,4.4,0.5,4.4,3.8c-0.1,36-0.1,72-0.1,108c0,0.3-0.3,0.6-0.3,0.7c-16.7,2.8-33.2,5.8-49.8,8.4c-6.5,1-13,1.8-19.6,2
			c-13.1,0.6-26.2,1.4-39.3,0.9c-22.8-0.8-44.3-6.9-62.8-20.5c-19.3-14.2-30.8-33.8-35.9-57c-4-18.1-4.2-36.4-1.3-55
			c2.5-16.6,8.2-31.7,17.8-45.1c10.8-15.1,25.3-26,43-32.4c10.4-3.7,20.9-6.5,31.9-7c0.5,0,1-0.6,1.5-0.9C288,0,301,0,314,0z"/>
		<path id="XMLID_60_" d="M0,4c33.3,0,66.7-0.2,100,0.1c16,0.2,31.5,2.9,45.8,10.8c16.8,9.2,25.5,22.9,26.4,42.3
			c0.5,12-3.1,22.2-10.8,30.6c-7.5,8.2-17.3,13.3-28.1,16.1c-1,0.3-1.9,0.7-3.6,1.3c21.3,4.3,38.5,13.6,45.2,34.4
			c10.2,31.4-5.2,59.8-39.4,69.3c-14.4,4-29.1,5.1-43.9,5c-30.5-0.1-61,0-91.5,0C0,144,0,74,0,4z M58.3,128c0,15,0,29.4,0,44
			c1.8,0,3.3,0,4.8,0c10.8,0,21.7,0.6,32.4-0.2c11-0.8,20.7-8.7,20.5-20.9c-0.2-11.9-9.1-22.5-20.5-22.9C83.3,127.7,71,128,58.3,128
			z M58.2,86c12.8,0,25.1,0.5,37.3-0.2c8.8-0.5,15.8-7.5,16.5-15c1.2-12.3-2.6-21.1-12.8-22.8c-13.4-2.2-27.2-2-41-2.8
			C58.2,59.9,58.2,73.1,58.2,86z"/>
		<path id="XMLID_59_" d="M487,0c3.3,0.7,6.5,1.3,9.8,2c16.6,3.4,30.9,10.5,40.2,25.5c4.4,7.1,6.3,14.8,7.1,23.3
			c-7.2,0-13.9,0-19.7,0c-2.2-6-3.5-11.8-6.2-16.8c-4.6-8.3-13-11.8-21.7-13.8c-14.5-3.4-28.9-2.8-42.9,2.9
			c-14,5.7-24.1,16.4-23.5,32.2c0.5,12.7,6.6,22.5,17.8,29.3c16.3,9.8,34.7,14,52.2,20.4c13,4.8,25.8,9.8,35.4,20.2
			c10.8,11.7,13.9,25.7,11.8,41.4c-1.6,11.4-5.5,21.4-13.3,29.9c-9.7,10.4-22.2,15.6-35.6,18.3c-10.7,2.1-21.9,3.2-32.8,3.1
			c-28.6-0.4-53.4-18.1-60.3-47.3c-0.1-0.5-0.2-1-0.2-1.5c-1.4-12.4-3.3-10.9,9.9-11c3.1,0,6.3,0,9.2,0c1.8,6.7,2.8,13.4,5.3,19.5
			c5.2,12.5,16.3,17.6,28.7,20.4c5.2,1.2,10.7,2.1,16.1,2c13.7-0.3,26.9-2.8,38.2-11.5c9.1-6.9,14.1-16,14.5-27.1
			c0.6-13.8-5.6-24.9-18.1-30.7c-11.8-5.4-24.3-9.3-36.6-13.5c-17.8-6.1-35.7-12.2-49.4-25.9c-17.9-18-18.1-46.9-3.3-66.1
			c11.4-14.7,27-21.7,45-24.1c0.5-0.1,1-0.6,1.5-0.9C473,0,480,0,487,0z"/>
		<path id="XMLID_56_" d="M752,219c-7.6-3.8-13.3-8.9-14.6-18c-1.6-11.3,7-21.7,17.6-23c12.4-1.5,19.7,4.9,23.9,15.9c0,3,0,6,0,9
			c-2.3,7.9-7.6,13-15,16C760,219,756,219,752,219z M774,198.7c0-9.5-7.2-17.2-16.2-16.7c-8.5,0.5-16,6.7-15.9,16.6
			c0.2,9.1,7.1,16.3,16,16.4C767.1,215,774,208,774,198.7z"/>
		<path id="XMLID_54_" d="M722,4c0,15.3,0,29.8,0,44.3c0,31.7,0.3,63.3-0.1,95c-0.2,16.2-4.4,31.5-13.7,45.3
			c-10.4,15.5-25.3,23.8-43.1,27.5c-16.9,3.5-33.5,2.8-50-2.9c-23.2-8-37.1-24.6-43-47.8c-2.2-8.6-3-17.8-3.1-26.8
			c-0.3-42.6-0.1-85.3-0.1-128c0-2,0-4,0-6.3c6.4,0,12.4,0,19,0c0,2,0,4,0,5.9c0,41.8-0.2,83.6,0.1,125.5
			c0.1,11.9,1.9,23.7,7.5,34.7c7.5,14.5,18.7,24,34.5,27.5c17.6,3.9,34.4,2.1,49.5-8.8c11-8,17.6-19,20.1-32.1
			c1.7-8.5,2.1-17.3,2.1-26c0.2-40.3,0.2-80.6,0-121c0-4.9,1.5-6.5,6.2-6.1C712.6,4.3,717,4,722,4z"/>
		<path id="XMLID_48_" d="M749.3,187c3.9,0,7.4-0.5,10.8,0.2c2.6,0.5,6,1.9,7.1,4c1.1,2.1-0.2,5.5-1.1,8.1c0.8,3.3,1.6,6.7,2.6,10.5
			c-3,0-5.1,0-7.5,0c-0.1-2-0.2-4-0.3-6.2c-1.4-0.5-2.9-1-4.7-1.6c0,2.6,0,4.9,0,7.6c-2.3,0-4.4,0-6.8,0
			C749.3,202.4,749.3,195,749.3,187z"/>
	</g>
</g>
</svg>
