<?xml version="1.0" encoding="utf-8"?>
<!-- Generator: Adobe Illustrator 19.0.0, SVG Export Plug-In . SVG Version: 6.00 Build 0)  -->
<svg version="1.1" id="Layer_1" xmlns="http://www.w3.org/2000/svg" xmlns:xlink="http://www.w3.org/1999/xlink" x="0px" y="0px"
	 viewBox="0 0 596.1 354.5" style="enable-background:new 0 0 596.1 354.5;" xml:space="preserve">
<style type="text/css">
	.st0{fill-rule:evenodd;clip-rule:evenodd;fill:#394F69;}
</style>
<path id="XMLID_10_" class="st0" d="M0.5,149.2C0.5,207.9,20,256.8,59,295.9c39,39.1,89.5,58.6,151.5,58.6c40,0,74.5-7.1,103.6-21.2
	c29.1-14.1,54-36,74.9-65.5l-83.6-39.2c-26.7,25.9-58.5,38.8-95.6,38.8c-31,0-56.5-8.1-76.5-24.7c-20-16.6-32.3-38.8-36.9-66.8
	h318.7l0.4-19c0-64.9-19.3-117.3-57.8-157H58C19.7,39.6,0.5,89.4,0.5,149.2z M137.2,46.7c20.9-15.5,45.1-23.3,72.8-23.3
	c25.5,0,47.9,7,67.2,20.8C296.5,58,309.4,76,315.9,98H100.8C112,73,124.1,56.4,137.2,46.7z"/>
<polygon id="XMLID_11_" class="st0" points="421,21 486,21 486,87 530,87 530,21 596,21 596,0 421,0 "/>
</svg>
