<?xml version="1.0" encoding="utf-8"?>
<!-- Generator: Adobe Illustrator 19.0.0, SVG Export Plug-In . SVG Version: 6.00 Build 0)  -->
<svg version="1.1" id="Layer_1" xmlns="http://www.w3.org/2000/svg" xmlns:xlink="http://www.w3.org/1999/xlink" x="0px" y="0px"
	 viewBox="285 -165.5 596.1 354.5" style="enable-background:new 285 -165.5 596.1 354.5;" xml:space="preserve">
<style type="text/css">
	.st0{fill:#3C536E;}
</style>
<path id="XMLID_10_" class="st0" d="M285.5-16.3c0,58.7,19.5,107.6,58.5,146.7S433.5,189,495.5,189c40,0,74.5-7.1,103.6-21.2
	c29.1-14.1,54-36,74.9-65.5l-83.6-39.2c-26.7,25.9-58.5,38.8-95.6,38.8c-31,0-56.5-8.1-76.5-24.7S386,38.4,381.4,10.4h318.7l0.4-19
	c0-64.9-19.3-117.3-57.8-157H343C304.7-125.9,285.5-76.1,285.5-16.3z M422.2-118.8c20.9-15.5,45.1-23.3,72.8-23.3
	c25.5,0,47.9,7,67.2,20.8s32.2,31.8,38.7,53.8H385.8C397-92.5,409.1-109.1,422.2-118.8z"/>
<polygon id="XMLID_11_" class="st0" points="706,-144.5 771,-144.5 771,-78.5 815,-78.5 815,-144.5 881,-144.5 881,-165.5 
	706,-165.5 "/>
</svg>
